solid Enclosure_Main
  facet normal 0 0 1
    outer loop
      vertex 0 0 0
      vertex 120 0 0
      vertex 120 80 0
    endloop
  endfacet
  facet normal 0 0 1
    outer loop
      vertex 0 0 0
      vertex 120 80 0
      vertex 0 80 0
    endloop
  endfacet
  facet normal 0 0 -1
    outer loop
      vertex 0 0 50
      vertex 120 80 50
      vertex 120 0 50
    endloop
  endfacet
  facet normal 0 0 -1
    outer loop
      vertex 0 0 50
      vertex 0 80 50
      vertex 120 80 50
    endloop
  endfacet
  facet normal 0 -1 0
    outer loop
      vertex 0 0 0
      vertex 120 0 0
      vertex 120 0 50
    endloop
  endfacet
  facet normal 0 -1 0
    outer loop
      vertex 0 0 0
      vertex 120 0 50
      vertex 0 0 50
    endloop
  endfacet
  facet normal 1 0 0
    outer loop
      vertex 120 0 0
      vertex 120 80 0
      vertex 120 80 50
    endloop
  endfacet
  facet normal 1 0 0
    outer loop
      vertex 120 0 0
      vertex 120 80 50
      vertex 120 0 50
    endloop
  endfacet
  facet normal 0 1 0
    outer loop
      vertex 0 80 0
      vertex 120 80 50
      vertex 120 80 0
    endloop
  endfacet
  facet normal 0 1 0
    outer loop
      vertex 0 80 0
      vertex 0 80 50
      vertex 120 80 50
    endloop
  endfacet
  facet normal -1 0 0
    outer loop
      vertex 0 0 0
      vertex 0 80 50
      vertex 0 80 0
    endloop
  endfacet
  facet normal -1 0 0
    outer loop
      vertex 0 0 0
      vertex 0 0 50
      vertex 0 80 50
    endloop
  endfacet
endsolid Enclosure_Main
