solid Enclosure_Lid
  facet normal 0 0 1
    outer loop
      vertex 0 0 0
      vertex 115 0 0
      vertex 115 75 0
    endloop
  endfacet
  facet normal 0 0 1
    outer loop
      vertex 0 0 0
      vertex 115 75 0
      vertex 0 75 0
    endloop
  endfacet
  facet normal 0 0 -1
    outer loop
      vertex 0 0 5
      vertex 115 75 5
      vertex 115 0 5
    endloop
  endfacet
  facet normal 0 0 -1
    outer loop
      vertex 0 0 5
      vertex 0 75 5
      vertex 115 75 5
    endloop
  endfacet
  facet normal 0 -1 0
    outer loop
      vertex 0 0 0
      vertex 115 0 0
      vertex 115 0 5
    endloop
  endfacet
  facet normal 0 -1 0
    outer loop
      vertex 0 0 0
      vertex 115 0 5
      vertex 0 0 5
    endloop
  endfacet
  facet normal 1 0 0
    outer loop
      vertex 115 0 0
      vertex 115 75 0
      vertex 115 75 5
    endloop
  endfacet
  facet normal 1 0 0
    outer loop
      vertex 115 0 0
      vertex 115 75 5
      vertex 115 0 5
    endloop
  endfacet
  facet normal 0 1 0
    outer loop
      vertex 0 75 0
      vertex 115 75 5
      vertex 115 75 0
    endloop
  endfacet
  facet normal 0 1 0
    outer loop
      vertex 0 75 0
      vertex 0 75 5
      vertex 115 75 5
    endloop
  endfacet
  facet normal -1 0 0
    outer loop
      vertex 0 0 0
      vertex 0 75 5
      vertex 0 75 0
    endloop
  endfacet
  facet normal -1 0 0
    outer loop
      vertex 0 0 0
      vertex 0 0 5
      vertex 0 75 5
    endloop
  endfacet
endsolid Enclosure_Lid
