solid Mounting_Bracket
  facet normal 0 0 1
    outer loop
      vertex 0 0 0
      vertex 60 0 0
      vertex 60 40 0
    endloop
  endfacet
  facet normal 0 0 1
    outer loop
      vertex 0 0 0
      vertex 60 40 0
      vertex 0 40 0
    endloop
  endfacet
  facet normal 0 0 -1
    outer loop
      vertex 0 0 3
      vertex 60 40 3
      vertex 60 0 3
    endloop
  endfacet
  facet normal 0 0 -1
    outer loop
      vertex 0 0 3
      vertex 0 40 3
      vertex 60 40 3
    endloop
  endfacet
  facet normal 0 -1 0
    outer loop
      vertex 0 0 0
      vertex 60 0 0
      vertex 60 0 3
    endloop
  endfacet
  facet normal 0 -1 0
    outer loop
      vertex 0 0 0
      vertex 60 0 3
      vertex 0 0 3
    endloop
  endfacet
  facet normal 1 0 0
    outer loop
      vertex 60 0 0
      vertex 60 40 0
      vertex 60 40 3
    endloop
  endfacet
  facet normal 1 0 0
    outer loop
      vertex 60 0 0
      vertex 60 40 3
      vertex 60 0 3
    endloop
  endfacet
  facet normal 0 1 0
    outer loop
      vertex 0 40 0
      vertex 60 40 3
      vertex 60 40 0
    endloop
  endfacet
  facet normal 0 1 0
    outer loop
      vertex 0 40 0
      vertex 0 40 3
      vertex 60 40 3
    endloop
  endfacet
  facet normal -1 0 0
    outer loop
      vertex 0 0 0
      vertex 0 40 3
      vertex 0 40 0
    endloop
  endfacet
  facet normal -1 0 0
    outer loop
      vertex 0 0 0
      vertex 0 0 3
      vertex 0 40 3
    endloop
  endfacet
endsolid Mounting_Bracket
